<svg width="121" height="128" viewBox="0 0 121 128" fill="none" xmlns="http://www.w3.org/2000/svg">
<path d="M52.5405 1.11298C28.4734 4.19614 8.47564 21.7644 1.84847 45.5571C-0.0699178 52.6542 -0.593116 64.347 0.743945 71.5022C3.24367 84.7657 8.24311 94.306 17.6607 103.788C23.5902 109.722 29.171 113.619 35.9726 116.586C43.995 120.077 48.5875 121.007 58.7608 121.298C63.7602 121.473 68.2364 121.356 68.7596 121.066C69.5154 120.658 68.8178 119.146 64.3415 111.7C59.4583 103.614 58.877 102.857 57.3656 102.857C53.8776 102.857 47.1341 100.938 42.0766 98.4945C31.2638 93.3171 23.8809 84.533 20.2185 72.6075C18.4745 67.0811 18.3001 56.3191 19.8697 50.7345C23.1833 38.809 31.2057 29.036 42.1347 23.6841C48.0061 20.8336 53.2381 19.6701 60.3885 19.6701C72.2476 19.6701 82.1884 23.9749 90.4433 32.6427C94.8614 37.2965 97.1867 41.136 99.6864 47.5932C101.198 51.6653 101.314 52.5379 101.372 60.6821C101.372 68.7681 101.256 69.8152 99.6864 74.4691L98.0587 79.5301L103.116 88.0234C105.965 92.6772 108.465 96.633 108.697 96.7493C109.395 97.2147 114.162 89.0705 116.138 84.1839C122.649 67.8955 122.126 50.5018 114.743 35.0278C103.465 11.5259 78.4097 -2.14471 52.5405 1.11298Z" fill="black"/>
<path d="M89.92 90.175L85.3856 94.887L94.2218 109.488C99.0469 117.516 103.523 124.788 104.104 125.66L105.209 127.289H112.534C118.987 127.289 119.742 127.173 119.452 126.359C118.87 124.846 95.0357 85.463 94.6869 85.463C94.5125 85.463 92.3616 87.6154 89.92 90.175Z" fill="black"/>
<path d="M73.4682 100.646C70.9103 101.519 68.0618 102.275 67.1898 102.275C66.2597 102.275 65.6202 102.508 65.7365 102.74C65.8527 103.031 69.1663 108.674 73.1775 115.248L80.4441 127.289H87.8852C91.9545 127.289 95.2681 127.115 95.2681 126.94C95.2681 126.475 79.8628 101.053 78.8745 99.948C78.177 99.1336 77.5956 99.1918 73.4682 100.646Z" fill="black"/>
</svg>
