<svg width="121" height="127" viewBox="0 0 121 127" fill="none" xmlns="http://www.w3.org/2000/svg">
<path d="M52.5405 0.476716C28.4734 3.55988 8.47564 21.1281 1.84847 44.9208C-0.0699178 52.0179 -0.593116 63.7107 0.743945 70.866C3.24367 84.1294 8.24311 93.6698 17.6607 103.152C23.5902 109.086 29.171 112.983 35.9726 115.95C43.995 119.44 48.5875 120.371 58.7608 120.662C63.7602 120.837 68.2364 120.72 68.7596 120.429C69.5154 120.022 68.8178 118.51 64.3415 111.063C59.4583 102.977 58.877 102.221 57.3656 102.221C53.8776 102.221 47.1341 100.301 42.0766 97.8582C31.2638 92.6808 23.8809 83.8967 20.2185 71.9713C18.4745 66.4448 18.3001 55.6828 19.8697 50.0982C23.1833 38.1728 31.2057 28.3997 42.1347 23.0478C48.0061 20.1973 53.2381 19.0339 60.3885 19.0339C72.2476 19.0339 82.1884 23.3387 90.4433 32.0064C94.8614 36.6603 97.1867 40.4997 99.6864 46.9569C101.198 51.029 101.314 51.9016 101.372 60.0458C101.372 68.1318 101.256 69.179 99.6864 73.8328L98.0587 78.8938L103.116 87.3871C105.965 92.0409 108.465 95.9967 108.697 96.113C109.395 96.5784 114.162 88.4342 116.138 83.5477C122.649 67.2593 122.126 49.8655 114.743 34.3915C103.465 10.8897 78.4097 -2.78097 52.5405 0.476716Z" fill="white"/>
<path d="M89.92 89.5387L85.3856 94.2507L94.2218 108.852C99.0469 116.88 103.523 124.152 104.104 125.024L105.209 126.653H112.534C118.986 126.653 119.742 126.537 119.452 125.722C118.87 124.21 95.0357 84.8267 94.6869 84.8267C94.5125 84.8267 92.3616 86.9791 89.92 89.5387Z" fill="white"/>
<path d="M73.4682 100.01C70.9103 100.882 68.0618 101.639 67.1898 101.639C66.2597 101.639 65.6202 101.871 65.7365 102.104C65.8527 102.395 69.1663 108.038 73.1775 114.611L80.4441 126.653H87.8852C91.9545 126.653 95.2681 126.479 95.2681 126.304C95.2681 125.839 79.8628 100.417 78.8745 99.3118C78.177 98.4974 77.5956 98.5555 73.4682 100.01Z" fill="white"/>
</svg>
