<svg width="388" height="128" viewBox="0 0 388 128" fill="none" xmlns="http://www.w3.org/2000/svg">
<path d="M157.038 112.804C153.554 112.804 150.561 112.112 148.06 110.727C145.559 109.342 143.638 107.489 142.298 105.166C141.003 102.843 140.355 100.275 140.355 97.461V77.83H149.534V97.461C149.534 98.8457 149.869 100.119 150.539 101.28C151.209 102.397 152.102 103.29 153.219 103.96C154.38 104.63 155.653 104.965 157.038 104.965C158.423 104.965 159.673 104.63 160.79 103.96C161.951 103.29 162.867 102.397 163.537 101.28C164.207 100.119 164.542 98.8457 164.542 97.461V77.83H173.721V97.461C173.721 100.275 173.051 102.843 171.711 105.166C170.416 107.489 168.517 109.342 166.016 110.727C163.559 112.112 160.567 112.804 157.038 112.804ZM195.893 112.804C192.767 112.804 190.042 112 187.719 110.392C185.397 108.784 183.588 106.64 182.292 103.96C181.042 101.235 180.416 98.2427 180.416 94.982C180.416 91.632 181.131 88.5947 182.56 85.87C184.034 83.1453 186.134 81.0013 188.858 79.438C191.583 77.83 194.844 77.026 198.64 77.026C202.482 77.026 205.72 77.83 208.355 79.438C210.991 81.046 213.001 83.2123 214.385 85.937C215.77 88.6617 216.462 91.6767 216.462 94.982V112H207.283V106.305H207.149C206.479 107.511 205.631 108.605 204.603 109.588C203.621 110.571 202.415 111.352 200.985 111.933C199.556 112.514 197.859 112.804 195.893 112.804ZM198.506 104.965C200.293 104.965 201.834 104.518 203.129 103.625C204.425 102.732 205.407 101.526 206.077 100.007C206.792 98.4437 207.149 96.724 207.149 94.848C207.149 92.972 206.792 91.297 206.077 89.823C205.407 88.3043 204.425 87.0983 203.129 86.205C201.834 85.3117 200.293 84.865 198.506 84.865C196.675 84.865 195.089 85.3117 193.749 86.205C192.454 87.0983 191.449 88.3043 190.734 89.823C190.064 91.297 189.729 92.972 189.729 94.848C189.729 96.724 190.064 98.4437 190.734 100.007C191.449 101.526 192.454 102.732 193.749 103.625C195.089 104.518 196.675 104.965 198.506 104.965ZM225.152 112V92.369C225.152 89.555 225.8 86.9867 227.095 84.664C228.435 82.3413 230.356 80.4877 232.857 79.103C235.358 77.7183 238.351 77.026 241.835 77.026C245.364 77.026 248.356 77.7183 250.813 79.103C253.314 80.4877 255.213 82.3413 256.508 84.664C257.848 86.9867 258.518 89.555 258.518 92.369V112H249.339V92.369C249.339 90.9843 249.004 89.7337 248.334 88.617C247.664 87.4557 246.748 86.54 245.587 85.87C244.47 85.2 243.22 84.865 241.835 84.865C240.45 84.865 239.177 85.2 238.016 85.87C236.899 86.54 236.006 87.4557 235.336 88.617C234.666 89.7337 234.331 90.9843 234.331 92.369V112H225.152ZM279.082 112C276.045 112 273.655 111.129 271.913 109.387C270.216 107.645 269.367 105.278 269.367 102.285V69.254H278.546V102.017C278.546 102.598 278.747 103.111 279.149 103.558C279.596 103.96 280.109 104.161 280.69 104.161H288.127V112H279.082ZM263.538 85.669V77.83H288.127V85.669H263.538ZM295.162 112V77.83H304.408V112H295.162ZM299.785 73.743C298.221 73.743 296.859 73.1847 295.698 72.068C294.581 70.9067 294.023 69.5443 294.023 67.981C294.023 66.4177 294.581 65.0777 295.698 63.961C296.859 62.7997 298.221 62.219 299.785 62.219C301.348 62.219 302.688 62.7997 303.805 63.961C304.966 65.0777 305.547 66.4177 305.547 67.981C305.547 69.5443 304.966 70.9067 303.805 72.068C302.688 73.1847 301.348 73.743 299.785 73.743ZM315.302 112V85.669H309.339V77.83H315.302V72.805C315.302 69.7677 316.151 67.4003 317.848 65.703C319.59 63.961 321.98 63.09 325.017 63.09H334.732V70.929H326.625C326.044 70.929 325.531 71.13 325.084 71.532C324.682 71.934 324.481 72.4477 324.481 73.073V77.83H333.258V85.669H324.481V112H315.302ZM350.605 125.601V112.335C348.014 111.799 345.803 110.816 343.972 109.387C342.185 107.958 340.8 106.216 339.818 104.161C338.88 102.062 338.411 99.8283 338.411 97.461V77.83H347.59V97.461C347.59 98.8457 347.925 100.119 348.595 101.28C349.265 102.397 350.158 103.29 351.275 103.96C352.436 104.63 353.709 104.965 355.094 104.965C356.478 104.965 357.729 104.63 358.846 103.96C360.007 103.29 360.923 102.397 361.593 101.28C362.263 100.119 362.598 98.8457 362.598 97.461V77.83H371.777V97.461C371.777 99.8283 371.308 102.039 370.37 104.094C369.432 106.104 368.069 107.846 366.283 109.32C364.496 110.749 362.33 111.732 359.784 112.268V125.601H350.605Z" fill="black"/>
<path d="M52.5405 1.11301C28.4734 4.19617 8.47564 21.7644 1.84847 45.5571C-0.0699178 52.6542 -0.593116 64.347 0.743945 71.5023C3.24367 84.7657 8.24311 94.3061 17.6607 103.788C23.5902 109.722 29.171 113.619 35.9726 116.586C43.995 120.077 48.5875 121.007 58.7608 121.298C63.7602 121.473 68.2364 121.356 68.7596 121.066C69.5154 120.658 68.8178 119.146 64.3415 111.7C59.4583 103.614 58.877 102.857 57.3656 102.857C53.8776 102.857 47.1341 100.938 42.0766 98.4945C31.2638 93.3171 23.8809 84.533 20.2185 72.6076C18.4745 67.0811 18.3001 56.3191 19.8697 50.7345C23.1833 38.8091 31.2057 29.036 42.1347 23.6841C48.0061 20.8336 53.2381 19.6702 60.3885 19.6702C72.2476 19.6702 82.1884 23.975 90.4433 32.6427C94.8614 37.2966 97.1867 41.136 99.6864 47.5932C101.198 51.6653 101.314 52.5379 101.372 60.6821C101.372 68.7681 101.256 69.8153 99.6864 74.4691L98.0587 79.5301L103.116 88.0234C105.965 92.6772 108.465 96.633 108.697 96.7493C109.395 97.2147 114.162 89.0705 116.138 84.184C122.649 67.8955 122.126 50.5018 114.743 35.0278C103.465 11.526 78.4097 -2.14468 52.5405 1.11301Z" fill="black"/>
<path d="M89.92 90.175L85.3856 94.887L94.2218 109.488C99.0469 117.516 103.523 124.788 104.104 125.661L105.209 127.289H112.534C118.987 127.289 119.742 127.173 119.452 126.359C118.87 124.846 95.0357 85.463 94.6869 85.463C94.5125 85.463 92.3616 87.6154 89.92 90.175Z" fill="black"/>
<path d="M73.4682 100.646C70.9103 101.519 68.0618 102.275 67.1898 102.275C66.2597 102.275 65.6202 102.508 65.7365 102.74C65.8527 103.031 69.1663 108.674 73.1775 115.248L80.4441 127.289H87.8852C91.9545 127.289 95.2681 127.115 95.2681 126.94C95.2681 126.475 79.8628 101.053 78.8745 99.9481C78.177 99.1337 77.5956 99.1918 73.4682 100.646Z" fill="black"/>
</svg>
