<svg width="180" height="100" viewBox="0 0 180 100" fill="none" xmlns="http://www.w3.org/2000/svg">
<path d="M85.1475 89.418C87.2032 92.0482 86.8407 95.9097 84.3379 98.043C81.8351 100.176 78.1401 99.7731 76.084 97.1436L67.7969 86.543C71.0882 84.3251 74.0845 81.6589 76.709 78.623L85.1475 89.418ZM116.238 95.8779L109.902 96.4541L108.623 84.2939H108.175C106.468 88.8164 104.356 92.0588 101.839 94.0215C99.3215 95.9842 96.3983 96.9658 93.0703 96.9658C92.8143 96.9658 92.3879 96.9013 91.791 96.7734C91.1939 96.6881 90.7668 96.582 90.5107 96.4541C89.5294 95.2594 88.6973 93.6587 88.0146 91.6533C87.332 89.6054 86.7772 87.3655 86.3506 84.9336C85.9239 82.459 85.604 79.9417 85.3906 77.3818C85.1773 74.8219 85.0277 72.3899 84.9424 70.0859C84.8772 68.2939 84.8367 66.6883 84.8213 65.2695C84.9939 64.839 85.1595 64.4048 85.3203 63.9678L97.6143 63.0459C97.2729 66.459 96.9956 69.4668 96.7822 72.0693C96.5689 74.672 96.4629 77.1683 96.4629 79.5576C96.4629 81.4776 96.5263 83.4192 96.6543 85.3818C96.825 87.3017 97.0816 89.4348 97.4229 91.7812C99.3 91.3546 100.857 90.5442 102.095 89.3496C103.375 88.1123 104.399 86.6402 105.167 84.9336C105.978 83.1843 106.553 81.3496 106.895 79.4297C107.236 77.5097 107.406 75.6325 107.406 73.7979C107.406 73.4566 107.385 73.0512 107.343 72.582C107.343 72.0701 107.278 71.2378 107.15 70.0859C107.065 68.8913 106.895 67.1201 106.639 64.7734L120.335 62.6621L116.238 95.8779ZM138.922 95.8779L132.586 96.4541L129.322 64.7734L143.019 62.6621L138.922 95.8779ZM178.315 63.4941L179.147 70.1494L157.707 91.334L177.547 88.9658L177.931 95.4941L150.347 96.0693L150.539 92.166L164.939 68.7412L152.523 67.4619L152.331 62.918L178.315 63.4941ZM44.168 0C68.5611 0 88.3357 21.0015 88.3359 46.9082C88.3359 52.9273 87.2655 58.6804 85.3203 63.9678L84.8145 64.0059C84.8145 64.4092 84.8165 64.8304 84.8213 65.2695C82.8386 70.2134 80.0811 74.7224 76.709 78.623L75.6621 77.2842C80.7843 71.2782 83.9414 63.0788 83.9414 54.0371C83.9414 35.623 70.8565 20.6955 54.7158 20.6953C38.575 20.6953 25.4902 35.6229 25.4902 54.0371C25.4903 72.4512 38.575 87.3789 54.7158 87.3789C58.8374 87.3789 62.7584 86.4027 66.3145 84.6465L67.7969 86.543C60.9635 91.1478 52.8599 93.8174 44.168 93.8174C19.7747 93.8174 0 72.8151 0 46.9082C0.000209646 21.0015 19.7748 6.56949e-06 44.168 0ZM60.418 67.4424C62.9209 65.3093 66.6169 65.7127 68.6729 68.3428L75.6621 77.2842C73.0164 80.3864 69.8464 82.9021 66.3145 84.6465L59.6084 76.0674C57.5526 73.4372 57.9151 69.5756 60.418 67.4424ZM135.53 47.4941C137.152 47.4942 138.538 48.0915 139.69 49.2861C140.885 50.438 141.482 51.8243 141.482 53.4453C141.482 55.0666 140.885 56.4753 139.69 57.6699C138.538 58.8219 137.152 59.3974 135.53 59.3975C133.909 59.3975 132.5 58.8219 131.306 57.6699C130.154 56.4753 129.578 55.0666 129.578 53.4453C129.578 51.8243 130.154 50.438 131.306 49.2861C132.5 48.0915 133.909 47.4941 135.53 47.4941Z" fill="#407EEA"/>
</svg>
